<mxfile host="app.diagrams.net" modified="2023-08-04T15:44:26.019Z" agent="Mozilla/5.0 (Macintosh; Intel Mac OS X 10_15_7) AppleWebKit/537.36 (KHTML, like Gecko) Chrome/112.0.0.0 Safari/537.36" version="21.6.6" etag="NJhO-k-T4cUmszS5twiG" type="github">
  <diagram name="第 1 页" id="4KoVOVZzVoG7cq9xZiRp">
    <mxGraphModel>
      <root>
        <mxCell id="0" />
        <mxCell id="1" parent="0" />
      </root>
    </mxGraphModel>
  </diagram>
</mxfile>
